<?xml version="1.0" encoding="utf-8"?>
<!-- Generator: Adobe Illustrator 15.1.0, SVG Export Plug-In  -->
<!DOCTYPE svg PUBLIC "-//W3C//DTD SVG 1.1//EN" "http://www.w3.org/Graphics/SVG/1.1/DTD/svg11.dtd" [
	<!ENTITY ns_flows "http://ns.adobe.com/Flows/1.0/">
]>
<svg version="1.1"
	 xmlns="http://www.w3.org/2000/svg" xmlns:xlink="http://www.w3.org/1999/xlink" xmlns:a="http://ns.adobe.com/AdobeSVGViewerExtensions/3.0/"
	 x="0px" y="0px" width="125px" height="40px" viewBox="0 0 122 40" overflow="visible" enable-background="new 0 0 122 40"
	 xml:space="preserve">
<defs>
</defs>
<path fill="#FFFFFF" d="M15.628,8.709C7.021,8.709,0,15.699,0,24.326c0,8.625,7.021,15.667,15.628,15.667
	c6.406,0,11.842-3.828,14.247-9.291h-3.947c-2.101,3.419-5.891,5.768-10.3,5.768c-6.148,0-11.12-4.54-11.992-10.411h27.52
	c0.049-0.562,0.154-1.172,0.154-1.732C31.311,15.699,24.29,8.709,15.628,8.709 M3.637,22.589
	c0.872-5.919,5.844-10.411,11.992-10.411c6.151,0,11.173,4.491,12.045,10.411H3.637z"/>
<path fill="#FFFFFF" d="M61.017,15.546c-2.355-3.572-6.197-6.837-12.195-6.837c-8.665,0-15.784,6.99-15.784,15.617
	c0,8.675,7.12,15.667,15.784,15.667c5.998,0,9.84-3.32,12.195-6.839v5.97h3.538V9.574h-3.538V15.546z M48.822,36.47
	c-6.762,0-12.249-5.356-12.249-12.144c0-6.739,5.486-12.148,12.249-12.148c6.713,0,12.195,5.409,12.195,12.148
	C61.017,31.113,55.535,36.47,48.822,36.47"/>
<path fill="#FFFFFF" d="M87.342,2.889H83.81v6.685h-2.717c-4.257,0-7.434,2.197-8.766,4.696V9.574h-3.484v29.55h3.484V20.906
	c0.203-4.647,4.427-7.861,8.766-7.861h2.717v19.137c0,3.828,3.177,6.941,6.966,6.941h2.669v-3.519h-2.669
	c-1.895,0-3.434-1.534-3.434-3.423V13.045h6.103V9.574h-6.103V2.889z"/>
<path fill="#FFFFFF" d="M109.158,8.709c-4.659,0-8.605,3.061-9.943,5.867V0h-3.53v39.124h3.53V20.906
	c0.158-4.849,5.024-8.728,9.943-8.728c5.024,0,8.407,3.314,8.407,8.318v18.628H121V20.496C121,13.557,116.542,8.709,109.158,8.709"
	/>
</svg>
